<mxfile host="app.diagrams.net" modified="2022-02-17T13:43:34.730Z" agent="5.0 (Macintosh)" etag="hz7w5Y3mB0RdFKwJ9ZYw" version="16.5.6" type="github">
  <diagram id="ZAffHEtDnOV2sE6AR0B2" name="Page-1">
    <mxGraphModel dx="946" dy="566" grid="1" gridSize="10" guides="1" tooltips="1" connect="1" arrows="1" fold="1" page="1" pageScale="1" pageWidth="827" pageHeight="1169" math="0" shadow="0">
      <root>
        <mxCell id="0" />
        <mxCell id="1" parent="0" />
        <mxCell id="aSmVjUS7uEvBV3D7qNeu-1" value="" style="rounded=0;whiteSpace=wrap;html=1;" vertex="1" parent="1">
          <mxGeometry x="150" y="190" width="120" height="60" as="geometry" />
        </mxCell>
        <mxCell id="aSmVjUS7uEvBV3D7qNeu-2" value="" style="rounded=0;whiteSpace=wrap;html=1;" vertex="1" parent="1">
          <mxGeometry x="360" y="190" width="120" height="60" as="geometry" />
        </mxCell>
      </root>
    </mxGraphModel>
  </diagram>
</mxfile>
